HIERARCHY
ROOT ui
{
	 OFFSET 0 0 0
	 CHANNELS 3 XPosition YPosition Z Position
	 EndSite
	 {
	 OFFSET 0 -1 0
	 }
}
ROOT li
{
	 OFFSET 0 0 0
	 CHANNELS 3 XPosition YPosition Z Position
	 EndSite
	 {
	 OFFSET 0 -1 0
	 }
}
ROOT ul
{
	 OFFSET 0 0 0
	 CHANNELS 3 XPosition YPosition Z Position
	 EndSite
	 {
	 OFFSET 0 -1 0
	 }
}
ROOT ll
{
	 OFFSET 0 0 0
	 CHANNELS 3 XPosition YPosition Z Position
	 EndSite
	 {
	 OFFSET 0 -1 0
	 }
}
ROOT tt
{
	 OFFSET 0 0 0
	 CHANNELS 3 XPosition YPosition Z Position
	 EndSite
	 {
	 OFFSET 0 -1 0
	 }
}
ROOT tb
{
	 OFFSET 0 0 0
	 CHANNELS 3 XPosition YPosition Z Position
	 EndSite
	 {
	 OFFSET 0 -1 0
	 }
}
ROOT td
{
	 OFFSET 0 0 0
	 CHANNELS 3 XPosition YPosition Z Position
	 EndSite
	 {
	 OFFSET 0 -1 0
	 }
}
ROOT v
{
	 OFFSET 0 0 0
	 CHANNELS 3 XPosition YPosition Z Position
	 EndSite
	 {
	 OFFSET 0 -1 0
	 }
}
ROOT bn
{
	 OFFSET 0 0 0
	 CHANNELS 3 XPosition YPosition Z Position
	 EndSite
	 {
	 OFFSET 0 -1 0
	 }
}
MOTION
Frames: 10
Frame Time: 0.002
-0.01342058563232422	-0.0012286560535430908	0		0.5077042846679688	-2.445338623046875	0		-0.9573639526367187	-0.07845487213134765	0		-0.3835085754394531	-2.809185791015625	0		1.972713623046875	-1.40199951171875	0		3.21958544921875	-0.632187255859375	0		4.4325244140625	-0.11900424194335937	0		6.01565625	0.6077911376953125	0		-0.3054822998046875	5.86248876953125	0		
-0.013659818649291992	-0.0012886619567871094	0		0.530408447265625	-2.4526552734375	0		-0.9745214233398437	-0.0713309326171875	0		-0.39410662841796873	-2.843133056640625	0		1.9704544677734375	-1.405016357421875	0		3.196251220703125	-0.6409515380859375	0		4.4304345703125	-0.10599729919433594	0		6.00835302734375	0.6079913940429688	0		-0.271714599609375	5.86803759765625	0		
-0.021030426025390625	-0.007266471862792969	0		0.5031526794433594	-2.4494033203125	0		-1.0467734375	-0.06657239532470703	0		-0.36980877685546876	-2.8794755859375	0		1.9740323486328124	-1.4161104736328125	0		3.195951416015625	-0.6409953002929687	0		4.42098486328125	-0.11893203735351562	0		6.00813623046875	0.60793798828125	0		-0.29098513793945313	5.87319482421875	0		
-0.014322504997253419	-0.001404497981071472	0		0.5027901306152344	-2.449461669921875	0		-1.0770404052734375	-0.058287502288818356	0		-0.42132815551757813	-2.892950439453125	0		1.98565869140625	-1.41730712890625	0		3.22831494140625	-0.6654312133789062	0		4.43266943359375	-0.11513151550292969	0		6.01516650390625	0.6404977416992188	0		-0.25629583740234374	5.87673779296875	0		
-0.007650486946105957	0.005456624031066895	0		0.5064125061035156	-2.4455693359375	0		-1.030371337890625	-0.05187607574462891	0		-0.34421554565429685	-2.93389404296875	0		2.0252396240234374	-1.4178348388671875	0		3.21509814453125	-0.6483631591796875	0		4.4342841796875	-0.11324134063720703	0		6.01487646484375	0.6403292236328125	0		-0.29170913696289064	5.873080078125	0		
0.06585668182373047	5.514919757843018E-4	0		0.5288601684570312	-2.452897705078125	0		-1.0426993408203125	-0.041787792205810546	0		-0.374838623046875	-2.946606689453125	0		1.9817379150390626	-1.4214271240234375	0		3.197455078125	-0.6652654418945313	0		4.4356806640625	-0.12737509918212891	0		5.99958447265625	0.6405175170898437	0		-0.27314141845703127	5.867806640625	0		
-0.0156392240524292	-0.0015854530334472657	0		0.49833087158203127	-2.4546259765625	0		-0.9712174072265625	-0.046656295776367186	0		-0.3157825622558594	-2.984346923828125	0		2.0072337646484373	-1.42282080078125	0		3.21580419921875	-0.6805985717773437	0		4.431154296875	-0.13246670532226562	0		5.99196533203125	0.6075618286132812	0		-0.3075755310058594	5.86213818359375	0		
-0.016124494552612306	-0.0016516180038452148	0		0.493734375	-2.4596572265625	0		-1.043653076171875	-0.04187631988525391	0		-0.4014656982421875	-2.995431396484375	0		2.013625	-1.4310113525390624	0		3.225268798828125	-0.6838505859375	0		4.43557421875	-0.14068788146972655	0		5.99890869140625	0.639885009765625	0		-0.29280615234375	5.87290576171875	0		
-0.01662318992614746	-0.001722620964050293	0		0.52290283203125	-2.483085205078125	0		-1.04415283203125	-0.04191947937011719	0		-0.3265331115722656	-3.0383623046875	0		2.0199951171875	-1.4392171630859374	0		3.208890625	-0.6718263549804687	0		4.42814111328125	-0.13479949951171874	0		6.002203125	0.6566766967773437	0		-0.29314566040039064	5.87284228515625	0		
-0.014081774711608886	0.002165914058685303	0		0.5223194580078125	-2.483178955078125	0		-1.082402587890625	-0.019527109146118164	0		-0.370223388671875	-3.04593310546875	0		2.01253759765625	-1.4312784423828124	0		3.214134033203125	-0.6920733032226563	0		4.43948193359375	-0.14815478515625	0		6.001845703125	0.6562096557617187	0		-0.2934634399414062	5.8727744140625	0		
